<?xml version="1.0" encoding="UTF-8"?><svg xmlns="http://www.w3.org/2000/svg" xmlns:xlink="http://www.w3.org/1999/xlink" version="1.1" id="Layer_1" x="0px" y="0px" viewBox="0 0 24 24" xml:space="preserve"><circle fill="#333" cx="18.5" cy="2.5" r="0.5"/><circle fill="#333" cx="20" cy="1.5" r="0.5"/><circle fill="#333" cx="21.5" cy="5.5" r="0.5"/><circle fill="#333" cx="22.5" cy="4" r="0.5"/><radialGradient id="SVGID_1_" cx="8.6870117" cy="15.25" r="11.1836615" gradientTransform="matrix(0.7071068 -0.7071068 0.4428277 0.4428277 -4.208756 14.6395226)" gradientUnits="userSpaceOnUse"><stop offset="0" stop-color="#EE9621"/><stop offset="0.1905734" stop-color="#EE9421"/><stop offset="0.3687767" stop-color="#F08D21"/><stop offset="0.533525" stop-color="#F58220"/><stop offset="0.6189799" stop-color="#EC7C21"/><stop offset="0.714315" stop-color="#DA6D22"/><stop offset="0.8143979" stop-color="#C15622"/><stop offset="0.9170476" stop-color="#A2371F"/><stop offset="1" stop-color="#861719"/></radialGradient><path fill="url(#SVGID_1_)" d="M16.144 10.001l-2.065-2.08-.08-.065C13.144 7.297 12.28 7.001 11.5 7 9.146 7 8.563 8.447 8.139 9.504 7.744 10.487 7.49 11 6.5 11 3.005 11 1 12.822 1 16c0 3.336 3.664 7 7 7 3.178 0 5-2.005 5-5.5 0-.991.513-1.244 1.495-1.639C15.552 15.437 17 14.854 17 12.5c0-.78-.296-1.644-.855-2.499z"/><path opacity="0.1" fill="#010101" d="M7.976 22.75c-2.265 0-4.67-1.615-6.038-3.674C3.24 21.254 5.698 23 8 23c2.425 0 4.063-1.175 4.702-3.281-.707 1.947-2.344 3.031-4.726 3.031z"/><path opacity="0.1" fill="#010101" d="M14.625 15.611c-.811.319-1.312.551-1.475 1.147.22-.418.674-.627 1.345-.897.686-.275 1.542-.627 2.054-1.477-.529.67-1.296.98-1.924 1.227z"/><path opacity="0.1" fill="#FFF" d="M6.5 11.25c.991 0 1.244-.513 1.639-1.496C8.563 8.697 9.146 7.25 11.5 7.25c.78.001 1.644.297 2.499.856l.08.065 2.065 2.08c.532.814.817 1.634.844 2.383.002-.048.011-.085.011-.134 0-.78-.296-1.644-.855-2.499l-2.065-2.08-.08-.065C13.144 7.297 12.28 7.001 11.5 7 9.146 7 8.563 8.447 8.139 9.504 7.744 10.487 7.49 11 6.5 11 3.005 11 1 12.822 1 16c0 .046.008.092.01.138.048-3.105 2.038-4.888 5.49-4.888z"/><path fill="#BF6B29" d="M9.5 12.5l2 2 8.5-9L18.5 4z"/><path transform="matrix(0.7071068 -0.7071068 0.7071068 0.7071068 -10.4705629 9.7218256)" fill="#FFDEB9" d="M6 15.379h1v4.242H6z" id="XMLID_1308_"/><path transform="matrix(0.7071068 -0.7071068 0.7071068 0.7071068 -10.4705629 9.7218256)" opacity="0.1" fill="#010101" d="M6 15.379h1v4.242H6z"/><path fill="#BA5827" d="M23 3l-2-2-3.5 2.5V5L19 6.5h1.5z"/><circle fill="#BA5827" cx="10.4999962" cy="13.5000038" r="2.9999962"/><circle fill="#333" cx="10.5" cy="13.4992409" r="1.9992408"/><linearGradient id="SVGID_2_" gradientUnits="userSpaceOnUse" x1="9.236268" y1="12.2355089" x2="11.4735155" y2="14.4727564"><stop offset="0" stop-color="#010101" stop-opacity="0.1"/><stop offset="1" stop-color="#010101" stop-opacity="0"/></linearGradient><circle fill="url(#SVGID_2_)" cx="10.5" cy="13.4992409" r="1.9992408"/><path opacity="0.1" fill="#010101" d="M9.227 12.226a2.006 2.006 0 0 1 2.756-.07c-.022-.026-.046-.047-.07-.071a2.002 2.002 0 0 0-2.828 0c-.78.779-.78 2.047 0 2.827.025.024.046.048.071.07a2.006 2.006 0 0 1 .07-2.756z"/><path opacity="0.1" fill="#FFF" d="M10.5 15.498a2.006 2.006 0 0 1-2-1.899v.1c0 1.102.898 2 2 2s2-.898 2-2v-.1a2.006 2.006 0 0 1-2 1.9z"/><circle fill="#BF6B29" cx="20.75" cy="2.25" r="0.25"/><circle fill="#BF6B29" cx="21.75" cy="3.25" r="0.25"/><circle fill="#BF6B29" cx="19.25" cy="3.25" r="0.25"/><circle fill="#BF6B29" cx="20.75" cy="4.75" r="0.25"/><linearGradient id="SVGID_3_" gradientUnits="userSpaceOnUse" x1="4.3207836" y1="7.5248165" x2="18.3562527" y2="14.069663"><stop offset="0" stop-color="#FFF" stop-opacity="0.2"/><stop offset="1" stop-color="#FFF" stop-opacity="0"/></linearGradient><path fill="url(#SVGID_3_)" d="M22.625 3.525L23 3l-2-2-.525.375A.493.493 0 0 0 20 1a.5.5 0 0 0-.5.5c0 .174.094.319.228.409l-.74.529A.494.494 0 0 0 18 2.5c0 .196.115.361.28.443l-.78.557v1.444l-3.291 3.109-.13-.132-.08-.065C13.144 7.297 12.28 7.001 11.5 7 9.146 7 8.563 8.447 8.139 9.504 7.744 10.487 7.49 11 6.5 11 3.005 11 1 12.822 1 16c0 3.336 3.664 7 7 7 3.178 0 5-2.005 5-5.5 0-.991.513-1.244 1.495-1.639C15.552 15.437 17 14.854 17 12.5c0-.78-.296-1.644-.855-2.499l-.203-.204L19.056 6.5H20.5l.557-.78a.496.496 0 1 0 .505-.707l.53-.741c.09.134.234.228.408.228A.5.5 0 0 0 23 4a.493.493 0 0 0-.375-.475z"/><metadata><rdf:RDF xmlns:rdf="http://www.w3.org/1999/02/22-rdf-syntax-ns#" xmlns:rdfs="http://www.w3.org/2000/01/rdf-schema#" xmlns:dc="http://purl.org/dc/elements/1.1/"><rdf:Description about="https://iconscout.com/legal#licenses" dc:title="music,instrument,play,guitar,accoustic" dc:description="music,instrument,play,guitar,accoustic" dc:publisher="Iconscout" dc:date="2017-11-03" dc:format="image/svg+xml" dc:language="en"><dc:creator><rdf:Bag><rdf:li>Those Icons</rdf:li></rdf:Bag></dc:creator></rdf:Description></rdf:RDF></metadata></svg>